<svg version="1.2" xmlns="http://www.w3.org/2000/svg" viewBox="0 0 49 49" width="49" height="49">
	<title>493397-PHFWWB-969-ai</title>
	<style>
		.s0 { opacity: .8;fill: #353d62 } 
	</style>
	<g id="Objects">
		<g id="&lt;Group&gt;">
			<path id="&lt;Path&gt;" class="s0" d="m25.4 19.1l3.6 0.5c0.8 0.1 0.9 1.1 0.2 1.4l-3.2 1.5c-0.2 0.1-0.4 0.3-0.4 0.6l-0.8 4.1c-0.1 0.7-1.1 0.8-1.4 0.2l-1.9-4c-0.1-0.2-0.3-0.4-0.6-0.4l-3.4-0.4c-0.7-0.1-0.9-1.2-0.2-1.5l3.4-1.5c0.2-0.1 0.4-0.3 0.4-0.5l0.6-3.9c0.1-0.8 1.1-0.9 1.4-0.2l1.7 3.7c0.1 0.2 0.4 0.4 0.6 0.4z"/>
		</g>
	</g>
</svg>
