<svg version="1.2" xmlns="http://www.w3.org/2000/svg" viewBox="0 0 169 130" width="169" height="130">
	<title>493397-PHFWWB-969-ai</title>
	<style>
		.s0 { fill: #7397fb } 
	</style>
	<g id="Objects">
		<g id="&lt;Group&gt;">
			<path id="&lt;Path&gt;" class="s0" d="m89.7 87.3l-8.3 14.2c-1.7 3-6.2 1.8-6.3-1.6l-0.7-16c0-1.1-0.6-2.1-1.5-2.7l-15.7-10.5c-2.8-1.8-1.5-6.1 1.8-6.3l19.5-0.6c1.2-0.1 2.3-0.7 2.9-1.8l7.6-13.5c1.7-3 6.3-1.8 6.4 1.6l0.3 16.6c0.1 1.2 0.7 2.2 1.7 2.9l15.1 9c2.9 1.7 1.7 6.2-1.7 6.3l-18.2 0.7c-1.2 0.1-2.3 0.7-2.9 1.7z"/>
		</g>
	</g>
</svg>