<svg version="1.2" xmlns="http://www.w3.org/2000/svg" viewBox="0 0 71 72" width="71" height="72">
	<title>493397-PHFWWB-969-ai</title>
	<defs>
		<linearGradient id="g1" x2="1" gradientUnits="userSpaceOnUse" gradientTransform="matrix(25.519,0,0,26.356,20.37,24.51)">
			<stop offset="0" stop-color="#8658ee"/>
			<stop offset=".993" stop-color="#5a49de"/>
		</linearGradient>
	</defs>
	<style>
		.s0 { fill: url(#g1) } 
	</style>
	<g id="Objects">
		<g id="&lt;Group&gt;">
			<path id="&lt;Path&gt;" class="s0" d="m37.4 33.6l7.2 0.9c1.5 0.2 1.8 2.2 0.4 2.9l-6.4 3c-0.4 0.2-0.8 0.6-0.8 1.1l-1.6 8.1c-0.3 1.5-2.3 1.7-2.9 0.4l-3.6-7.8c-0.2-0.5-0.7-0.8-1.2-0.9l-6.8-0.8c-1.5-0.2-1.8-2.3-0.4-2.9l6.7-3c0.4-0.2 0.8-0.6 0.8-1.1l1.1-7.7c0.2-1.5 2.3-1.8 2.9-0.4l3.4 7.3c0.2 0.5 0.7 0.8 1.2 0.9z"/>
		</g>
	</g>
</svg>