<svg version="1.2" xmlns="http://www.w3.org/2000/svg" viewBox="0 0 79 80" width="79" height="80">
	<title>493397-PHFWWB-969-ai</title>
	<style>
		.s0 { fill: #cb4382 } 
	</style>
	<g id="Objects">
		<g id="&lt;Group&gt;">
			<path id="&lt;Path&gt;" class="s0" d="m43.8 33.9l7.2 1c1.5 0.2 1.8 2.2 0.4 2.9l-6.4 3c-0.4 0.2-0.8 0.6-0.9 1l-1.5 8.2c-0.3 1.5-2.3 1.7-2.9 0.4l-3.6-7.9c-0.2-0.4-0.7-0.8-1.2-0.8l-6.8-0.8c-1.5-0.2-1.8-2.3-0.4-2.9l6.6-3c0.5-0.2 0.9-0.6 0.9-1.2l1.1-7.6c0.2-1.5 2.2-1.8 2.9-0.4l3.4 7.3c0.2 0.4 0.7 0.8 1.2 0.8z"/>
		</g>
	</g>
</svg>