<svg version="1.2" xmlns="http://www.w3.org/2000/svg" viewBox="0 0 116 88" width="116" height="88">
	<title>493397-PHFWWB-969-ai</title>
	<style>
		.s0 { fill: #88cd96 } 
	</style>
	<g id="Objects">
		<g id="&lt;Group&gt;">
			<path id="&lt;Path&gt;" class="s0" d="m63.9 39.1l7.2 1c1.5 0.2 1.8 2.2 0.4 2.8l-6.4 3c-0.4 0.2-0.8 0.6-0.8 1.1l-1.6 8.2c-0.3 1.4-2.3 1.7-2.9 0.3l-3.6-7.8c-0.2-0.5-0.7-0.8-1.2-0.8l-6.8-0.9c-1.5-0.1-1.8-2.2-0.4-2.8l6.6-3c0.5-0.2 0.9-0.6 0.9-1.2l1.1-7.6c0.2-1.5 2.3-1.8 2.9-0.5l3.4 7.4c0.2 0.4 0.7 0.7 1.2 0.8z"/>
		</g>
	</g>
</svg>