<svg version="1.2" xmlns="http://www.w3.org/2000/svg" viewBox="0 0 159 126" width="159" height="126">
	<title>493397-PHFWWB-969-ai</title>
	<style>
		.s0 { opacity: .8;fill: #353d62 } 
	</style>
	<g id="Objects">
		<g id="&lt;Group&gt;">
			<path id="&lt;Path&gt;" class="s0" d="m80.6 53.2l14.3 1.9c3 0.4 3.6 4.5 0.9 5.7l-12.8 6c-0.8 0.4-1.5 1.2-1.7 2.1l-3.1 16.3c-0.6 2.9-4.5 3.3-5.7 0.7l-7.2-15.6c-0.4-0.9-1.3-1.6-2.3-1.7l-13.6-1.6c-3-0.4-3.6-4.5-0.8-5.7l13.3-5.9c0.9-0.4 1.6-1.3 1.7-2.4l2.2-15.2c0.4-3 4.4-3.5 5.7-0.8l6.8 14.5c0.4 0.9 1.3 1.6 2.3 1.7z"/>
		</g>
	</g>
</svg>